<svg width="252" height="377" viewBox="0 0 252 377" fill="none" xmlns="http://www.w3.org/2000/svg">
<g opacity="0.05">
<path d="M61.0456 172.305L70.4245 169.382C72.8354 168.63 74.8776 167.442 76.5774 165.807C77.7139 164.698 78.7049 163.4 79.5338 161.863C81.5382 158.128 81.922 154.23 80.6587 150.176C79.3624 146.017 76.8071 142.947 73.0358 141.012C71.5068 140.21 69.9543 139.705 68.362 139.446C66.0612 139.058 63.7053 139.24 61.2943 139.992L51.8889 142.923L31.9388 149.14L31.8859 149.156L41.0425 178.538L41.0955 178.522L61.0456 172.305Z" fill="#F89219"/>
<path d="M87.7621 192.93C86.883 193 86.0122 193.097 85.1231 193.229C83.4856 193.478 81.8364 193.875 80.1673 194.395L69.0133 197.871L49.0632 204.089L49.0103 204.105L59.4632 237.647L59.5162 237.63L79.4663 231.413L91.2826 227.73C92.7398 227.276 94.0945 226.68 95.3201 225.949C98.0645 224.309 100.252 222 101.82 219.011C104.1 214.667 104.487 210.128 103.009 205.386C100.648 197.808 95.5506 193.671 87.7621 192.93Z" fill="#F89219"/>
<path d="M28.6788 77.8658C-32.1516 96.8231 -66.0915 161.494 -47.1341 222.325C-28.1767 283.155 36.4945 317.095 97.3249 298.138C158.155 279.18 192.095 214.509 173.138 153.679C154.18 92.8482 89.5093 58.9084 28.6788 77.8658ZM125.451 231.412C120.417 241.004 113.06 247.802 103.371 251.781L107.681 265.611L91.6781 270.598L87.4259 256.953L67.4758 263.171L71.728 276.815L55.7256 281.802L51.4734 268.158L41.8825 271.147L27.6817 275.572C27.6817 275.572 27.6817 275.572 27.6239 275.387L19.7223 250.032L33.9231 245.606L10.7713 171.317L6.34575 157.116L-7.85509 161.542L-15.8063 136.028L-1.60544 131.602L7.98541 128.613L3.73321 114.969L19.7356 109.982L23.9878 123.626L37.6323 119.374L43.9114 117.417L39.6592 103.773L55.6617 98.7856L60.0707 112.933C68.8127 111.604 77.2975 113.088 85.4987 117.392C95.7849 122.79 102.67 131.079 106.146 142.233C109.119 151.771 108.724 161.138 104.97 170.359C116.78 175.98 124.624 185.017 128.505 197.469C132.207 209.163 131.177 220.501 125.451 231.412Z" fill="#F89219"/>
<path d="M177.686 91.0456C165.163 76.2292 150.023 64.1175 132.778 55.0453C115.507 45.9813 96.9732 40.4209 77.6387 38.5401C57.6388 36.576 37.6738 38.6413 18.3331 44.6687C-1.00763 50.6961 -18.6112 60.3387 -33.9544 73.3173C-48.7708 85.841 -60.8825 100.981 -69.9548 118.225C-79.027 135.47 -84.5443 154.049 -86.4599 173.365C-88.424 193.365 -86.3587 213.33 -80.3313 232.67C-74.3039 252.011 -64.6613 269.615 -51.6827 284.958C-39.159 299.774 -24.0192 311.886 -6.77457 320.958C10.4966 330.022 29.0303 335.583 48.3648 337.463C68.3647 339.428 88.3298 337.362 107.67 331.335C127.011 325.307 144.615 315.665 159.958 302.686C174.774 290.163 186.886 275.023 195.958 257.778C205.022 240.507 210.583 221.973 212.463 202.639C214.428 182.639 212.362 162.674 206.335 143.333C200.307 123.992 190.665 106.389 177.686 91.0456ZM149.424 290.244C135.759 301.798 120.071 310.408 102.824 315.783C85.5761 321.158 67.7832 323.011 49.9651 321.239C32.7511 319.541 16.2068 314.581 0.812194 306.502C-14.5824 298.423 -28.0628 287.625 -39.2402 274.424C-50.8212 260.767 -59.4042 245.071 -64.7793 227.824C-70.1544 210.576 -72.0079 192.783 -70.2358 174.965C-68.5371 157.751 -63.5776 141.207 -55.4984 125.812C-47.4193 110.418 -36.6216 96.9372 -23.4204 85.7598C-9.76359 74.1788 5.93209 65.5958 23.1797 60.2207C40.4274 54.8456 58.2203 52.9922 76.0384 54.7642C93.2524 56.4629 109.797 61.4224 125.191 69.5016C140.586 77.5808 154.066 88.3784 165.244 101.58C176.798 115.245 185.408 130.932 190.783 148.18C196.158 165.427 198.011 183.22 196.239 201.038C194.541 218.252 189.581 234.797 181.502 250.191C173.458 265.604 162.652 279.058 149.424 290.244Z" fill="#F89219"/>
<path d="M105.015 170.316C108.769 161.095 109.163 151.728 106.191 142.19C102.715 131.036 95.8295 122.747 85.5432 117.349C77.3421 113.045 68.8572 111.561 60.1153 112.89L55.7062 98.7426L39.7038 103.73L43.956 117.374L37.6769 119.331L24.0324 123.583L19.7802 109.939L3.77779 114.926L8.02998 128.57L-1.56088 131.559L-15.7617 135.985L-7.80227 161.525L6.39856 157.099L10.8241 171.3L33.9759 245.59L19.7751 250.015L27.6767 275.37C27.7345 275.556 27.7345 275.556 27.7345 275.556L41.9354 271.13L51.5262 268.141L55.7784 281.786L71.7809 276.799L67.5287 263.154L87.4787 256.937L91.7309 270.581L107.733 265.594L103.423 251.764C113.113 247.785 120.47 240.987 125.503 231.396C131.23 220.484 132.269 209.173 128.603 197.41C124.669 184.974 116.824 175.937 105.015 170.316ZM31.8941 149.183L31.9471 149.166L51.8972 142.949L61.3026 140.018C63.7135 139.267 66.0429 139.093 68.3702 139.472C69.9626 139.732 71.5151 140.236 73.0441 141.039C76.8154 142.974 79.3625 146.017 80.667 150.203C81.9303 154.256 81.5465 158.155 79.5421 161.89C78.7314 163.392 77.7487 164.716 76.5857 165.834C74.8859 167.468 72.8437 168.657 70.4328 169.408L61.0538 172.331L41.1038 178.548L41.0508 178.565L31.8941 149.183ZM101.812 218.985C100.243 221.973 98.091 224.301 95.3118 225.923C94.0862 226.653 92.7316 227.25 91.2744 227.704L79.458 231.386L59.508 237.604L59.455 237.62L49.002 204.079L49.055 204.062L69.005 197.845L80.1591 194.369C81.8282 193.849 83.4856 193.478 85.1148 193.202C86.0039 193.071 86.8748 192.974 87.7539 192.903C95.5688 193.636 100.648 197.808 102.993 205.333C104.479 210.102 104.065 214.649 101.812 218.985Z" fill="#1A1D30"/>
</g>
</svg>
