<svg width="160" height="53" viewBox="0 0 160 53" fill="none" xmlns="http://www.w3.org/2000/svg">
<path d="M43.6574 14.6701L22.1515 0.12899C22.1366 0.119067 22.1266 0.119067 22.1117 0.109145C22.0968 0.0992227 22.0919 0.0893005 22.077 0.0843393C22.0571 0.0744171 22.0372 0.0744171 22.0223 0.0644948C21.9876 0.0496114 21.9528 0.0396891 21.9181 0.0297668C21.8883 0.0198445 21.8535 0.0148834 21.8237 0.00992227C21.784 0.00496114 21.7492 0 21.7145 0C21.6797 0 21.6499 0.00496114 21.6152 0.00992227C21.5804 0.0148834 21.5457 0.0198445 21.5109 0.0297668C21.4811 0.0396891 21.4463 0.0496114 21.4165 0.0644948C21.3967 0.0744171 21.3818 0.0744171 21.3619 0.0843393C21.347 0.0942616 21.3321 0.104184 21.3172 0.114106C21.3023 0.124028 21.2874 0.12899 21.2725 0.138912L0.531317 14.8388C0.332694 14.9826 0.208554 15.2108 0.208554 15.4589L0 37.1391C0 37.144 0 37.144 0 37.149C0 37.154 0 37.154 0 37.1589C0 37.2234 0.00993116 37.2879 0.0248279 37.3474C0.0297935 37.3574 0.0347591 37.3722 0.0397246 37.3822C0.0546214 37.4318 0.0744837 37.4814 0.104277 37.531C0.114208 37.5508 0.129105 37.5657 0.144002 37.5856C0.16883 37.6203 0.193658 37.655 0.223451 37.6848C0.243313 37.7046 0.263176 37.7195 0.283038 37.7344C0.3029 37.7493 0.317797 37.7691 0.342625 37.784L21.933 52.2705C22.0621 52.3598 22.211 52.3995 22.36 52.3995C22.5139 52.3995 22.6728 52.3499 22.8069 52.2557L43.5581 37.5459C43.573 37.536 43.5879 37.5161 43.6028 37.5012C43.6226 37.4814 43.6425 37.4665 43.6623 37.4467C43.6872 37.4169 43.712 37.3871 43.7368 37.3574C43.7517 37.3375 43.7666 37.3127 43.7815 37.2929C43.8014 37.2581 43.8163 37.2184 43.8312 37.1837C43.8411 37.1589 43.851 37.1391 43.856 37.1143C43.8659 37.0696 43.8709 37.02 43.8759 36.9704C43.8759 36.9555 43.8808 36.9406 43.8808 36.9257L44 15.3101C44 15.0571 43.8709 14.814 43.6574 14.6701ZM27.0326 38.3893L20.0709 43.3256L12.8906 38.4885L8.64011 41.5049L2.12527 37.1292L21.5705 23.3471L41.7605 36.9406L35.5138 41.366L21.8337 32.1531L19.8574 33.5522L27.0326 38.3893ZM14.7378 15.4688L14.8074 6.60823L20.9448 2.25732L20.7958 22.0126L12.9006 27.6087L7.7612 22.4343L7.69665 31.2949L1.55423 35.6507L1.74292 15.8657L9.59846 10.2993L14.7378 15.4688ZM42.4209 22.0175L35.9905 17.6815L35.8862 31.1361L28.706 26.3039L28.8103 12.8444L22.4295 8.54308L22.4792 2.20274L42.4557 15.7169L42.4209 22.0175Z" fill="#F7A600"/>
<path d="M69.5508 6.9375V24H65.4492L59.4141 13.3828V24H55.3008V6.9375H59.4141L65.4492 17.5547V6.9375H69.5508Z" fill="white"/>
<path d="M76.2656 6.9375V24H72.1523V6.9375H76.2656ZM82.8984 14.0391V17.2031H75.0938V14.0391H82.8984ZM83.5664 6.9375V10.1133H75.0938V6.9375H83.5664Z" fill="white"/>
<path d="M93.7734 6.9375V24H89.6602V6.9375H93.7734ZM98.9062 6.9375V10.1133H84.6445V6.9375H98.9062Z" fill="white"/>
<path d="M66.7969 34.7109V37.875H58.043V34.7109H66.7969ZM59.4141 27.9375V45H55.3008V27.9375H59.4141ZM69.5625 27.9375V45H65.4609V27.9375H69.5625Z" fill="white"/>
<path d="M86.6133 36.1289V36.8203C86.6133 38.125 86.4297 39.2969 86.0625 40.3359C85.7031 41.3672 85.1914 42.25 84.5273 42.9844C83.8633 43.7109 83.0781 44.2695 82.1719 44.6602C81.2656 45.043 80.2656 45.2344 79.1719 45.2344C78.0703 45.2344 77.0625 45.043 76.1484 44.6602C75.2422 44.2695 74.4531 43.7109 73.7812 42.9844C73.1172 42.25 72.6016 41.3672 72.2344 40.3359C71.875 39.2969 71.6953 38.125 71.6953 36.8203V36.1289C71.6953 34.8242 71.875 33.6523 72.2344 32.6133C72.6016 31.5742 73.1133 30.6914 73.7695 29.9648C74.4336 29.2305 75.2188 28.6719 76.125 28.2891C77.0391 27.8984 78.0469 27.7031 79.1484 27.7031C80.2422 27.7031 81.2422 27.8984 82.1484 28.2891C83.0625 28.6719 83.8516 29.2305 84.5156 29.9648C85.1797 30.6914 85.6953 31.5742 86.0625 32.6133C86.4297 33.6523 86.6133 34.8242 86.6133 36.1289ZM82.4414 36.8203V36.1055C82.4414 35.2617 82.3672 34.5195 82.2188 33.8789C82.0781 33.2305 81.8672 32.6875 81.5859 32.25C81.3047 31.8125 80.957 31.4844 80.543 31.2656C80.1367 31.0391 79.6719 30.9258 79.1484 30.9258C78.6016 30.9258 78.125 31.0391 77.7188 31.2656C77.3125 31.4844 76.9727 31.8125 76.6992 32.25C76.4258 32.6875 76.2188 33.2305 76.0781 33.8789C75.9453 34.5195 75.8789 35.2617 75.8789 36.1055V36.8203C75.8789 37.6562 75.9453 38.3984 76.0781 39.0469C76.2188 39.6875 76.4258 40.2305 76.6992 40.6758C76.9805 41.1211 77.3242 41.457 77.7305 41.6836C78.1445 41.9102 78.625 42.0234 79.1719 42.0234C79.6953 42.0234 80.1602 41.9102 80.5664 41.6836C80.9727 41.457 81.3125 41.1211 81.5859 40.6758C81.8672 40.2305 82.0781 39.6875 82.2188 39.0469C82.3672 38.3984 82.4414 37.6562 82.4414 36.8203Z" fill="white"/>
<path d="M100.02 41.8359V45H91.3945V41.8359H100.02ZM92.8594 27.9375V45H88.7461V27.9375H92.8594Z" fill="white"/>
<path d="M107.297 45H103.512L103.535 41.8359H107.297C108.078 41.8359 108.738 41.6484 109.277 41.2734C109.824 40.8984 110.238 40.3398 110.52 39.5977C110.809 38.8477 110.953 37.9258 110.953 36.832V36.0938C110.953 35.2734 110.871 34.5547 110.707 33.9375C110.551 33.3125 110.316 32.793 110.004 32.3789C109.691 31.957 109.301 31.6406 108.832 31.4297C108.371 31.2188 107.84 31.1133 107.238 31.1133H103.441V27.9375H107.238C108.395 27.9375 109.453 28.1367 110.414 28.5352C111.383 28.9258 112.219 29.4883 112.922 30.2227C113.633 30.9492 114.18 31.8125 114.562 32.8125C114.953 33.8047 115.148 34.9062 115.148 36.1172V36.832C115.148 38.0352 114.953 39.1367 114.562 40.1367C114.18 41.1367 113.637 42 112.934 42.7266C112.23 43.4531 111.398 44.0156 110.438 44.4141C109.484 44.8047 108.438 45 107.297 45ZM105.867 27.9375V45H101.754V27.9375H105.867Z" fill="white"/>
<path d="M129.035 41.8359V45H119.941V41.8359H129.035ZM121.406 27.9375V45H117.293V27.9375H121.406ZM127.863 34.7109V37.7695H119.941V34.7109H127.863ZM129.07 27.9375V31.1133H119.941V27.9375H129.07Z" fill="white"/>
<path d="M130.723 27.9375H137.438C138.75 27.9375 139.891 28.1328 140.859 28.5234C141.828 28.9141 142.574 29.4922 143.098 30.2578C143.629 31.0234 143.895 31.9688 143.895 33.0938C143.895 34.0703 143.742 34.8867 143.438 35.543C143.133 36.1992 142.707 36.7422 142.16 37.1719C141.621 37.5938 140.992 37.9414 140.273 38.2148L138.926 38.9766H133.289L133.266 35.8008H137.438C137.961 35.8008 138.395 35.707 138.738 35.5195C139.082 35.332 139.34 35.0664 139.512 34.7227C139.691 34.3711 139.781 33.9531 139.781 33.4688C139.781 32.9766 139.691 32.5547 139.512 32.2031C139.332 31.8516 139.066 31.582 138.715 31.3945C138.371 31.207 137.945 31.1133 137.438 31.1133H134.836V45H130.723V27.9375ZM140.062 45L136.289 37.4531L140.648 37.4297L144.469 44.8242V45H140.062Z" fill="white"/>
<path d="M155.168 40.4648C155.168 40.1992 155.129 39.9609 155.051 39.75C154.973 39.5312 154.828 39.3281 154.617 39.1406C154.406 38.9531 154.102 38.7656 153.703 38.5781C153.312 38.3828 152.797 38.1797 152.156 37.9688C151.406 37.7188 150.684 37.4375 149.988 37.125C149.293 36.8047 148.672 36.4336 148.125 36.0117C147.578 35.582 147.145 35.082 146.824 34.5117C146.504 33.9336 146.344 33.2617 146.344 32.4961C146.344 31.7617 146.508 31.1016 146.836 30.5156C147.164 29.9219 147.621 29.418 148.207 29.0039C148.801 28.582 149.496 28.2617 150.293 28.043C151.09 27.8164 151.961 27.7031 152.906 27.7031C154.156 27.7031 155.258 27.9219 156.211 28.3594C157.172 28.7891 157.922 29.4023 158.461 30.1992C159.008 30.9883 159.281 31.9219 159.281 33H155.191C155.191 32.5703 155.102 32.1914 154.922 31.8633C154.75 31.5352 154.488 31.2773 154.137 31.0898C153.785 30.9023 153.344 30.8086 152.812 30.8086C152.297 30.8086 151.863 30.8867 151.512 31.043C151.16 31.1992 150.895 31.4102 150.715 31.6758C150.535 31.9336 150.445 32.2188 150.445 32.5312C150.445 32.7891 150.516 33.0234 150.656 33.2344C150.805 33.4375 151.012 33.6289 151.277 33.8086C151.551 33.9883 151.879 34.1602 152.262 34.3242C152.652 34.4883 153.09 34.6484 153.574 34.8047C154.48 35.0938 155.285 35.418 155.988 35.7773C156.699 36.1289 157.297 36.5312 157.781 36.9844C158.273 37.4297 158.645 37.9375 158.895 38.5078C159.152 39.0781 159.281 39.7227 159.281 40.4414C159.281 41.207 159.133 41.8867 158.836 42.4805C158.539 43.0742 158.113 43.5781 157.559 43.9922C157.004 44.3984 156.34 44.707 155.566 44.918C154.793 45.1289 153.93 45.2344 152.977 45.2344C152.102 45.2344 151.238 45.125 150.387 44.9062C149.543 44.6797 148.777 44.3359 148.09 43.875C147.402 43.4062 146.852 42.8086 146.438 42.082C146.031 41.3477 145.828 40.4766 145.828 39.4688H149.953C149.953 39.9688 150.02 40.3906 150.152 40.7344C150.285 41.0781 150.48 41.3555 150.738 41.5664C150.996 41.7695 151.312 41.918 151.688 42.0117C152.062 42.0977 152.492 42.1406 152.977 42.1406C153.5 42.1406 153.922 42.0664 154.242 41.918C154.562 41.7617 154.797 41.5586 154.945 41.3086C155.094 41.0508 155.168 40.7695 155.168 40.4648Z" fill="white"/>
<path d="M103.609 15.0352L107.23 12.7734C107.715 12.4609 108.012 12.168 108.121 11.8945C108.238 11.6133 108.297 11.3398 108.297 11.0742C108.297 10.7539 108.18 10.4531 107.945 10.1719C107.719 9.88281 107.398 9.73828 106.984 9.73828C106.68 9.73828 106.422 9.80859 106.211 9.94922C106.008 10.082 105.852 10.2617 105.742 10.4883C105.641 10.7148 105.59 10.9688 105.59 11.25C105.59 11.6016 105.688 11.957 105.883 12.3164C106.078 12.6758 106.336 13.0547 106.656 13.4531C106.984 13.8516 107.348 14.2891 107.746 14.7656L115.773 24H111.367L104.828 16.5703C104.289 15.8828 103.82 15.25 103.422 14.6719C103.031 14.0938 102.727 13.5312 102.508 12.9844C102.289 12.4375 102.18 11.875 102.18 11.2969C102.18 10.3984 102.375 9.60547 102.766 8.91797C103.164 8.22266 103.723 7.67969 104.441 7.28906C105.168 6.89062 106.02 6.69141 106.996 6.69141C107.902 6.69141 108.688 6.87891 109.352 7.25391C110.023 7.62891 110.543 8.12891 110.91 8.75391C111.277 9.37109 111.461 10.0508 111.461 10.793C111.461 11.3086 111.363 11.7969 111.168 12.2578C110.973 12.7188 110.703 13.1406 110.359 13.5234C110.023 13.9062 109.637 14.2539 109.199 14.5664L105.285 17.2969C105.129 17.4922 105 17.6914 104.898 17.8945C104.805 18.0898 104.734 18.2891 104.688 18.4922C104.648 18.6953 104.629 18.9141 104.629 19.1484C104.629 19.5547 104.715 19.9141 104.887 20.2266C105.059 20.5312 105.285 20.7695 105.566 20.9414C105.855 21.1133 106.168 21.1992 106.504 21.1992C107.137 21.1992 107.746 21.0625 108.332 20.7891C108.926 20.5078 109.457 20.1133 109.926 19.6055C110.395 19.0977 110.766 18.4922 111.039 17.7891C111.312 17.0859 111.449 16.3125 111.449 15.4688H114.754C114.754 16.3906 114.66 17.2695 114.473 18.1055C114.293 18.9336 113.992 19.6992 113.57 20.4023C113.156 21.1055 112.598 21.7227 111.895 22.2539C111.855 22.2773 111.781 22.3242 111.672 22.3945C111.57 22.457 111.496 22.5 111.449 22.5234C110.629 23.1094 109.82 23.543 109.023 23.8242C108.227 24.1055 107.297 24.2461 106.234 24.2461C105.086 24.2461 104.094 24.0391 103.258 23.625C102.43 23.2109 101.789 22.6406 101.336 21.9141C100.883 21.1875 100.656 20.3555 100.656 19.418C100.656 18.7539 100.781 18.1758 101.031 17.6836C101.281 17.1836 101.629 16.7227 102.074 16.3008C102.52 15.8789 103.031 15.457 103.609 15.0352Z" fill="#F7A600"/>
</svg>
