<svg width="244" height="345" viewBox="0 0 244 345" fill="none" xmlns="http://www.w3.org/2000/svg">
<path d="M285.266 58.2707L118.034 0.384476C117.919 0.345369 117.853 0.362884 117.738 0.323777C117.622 0.28467 117.572 0.228044 117.465 0.221628C117.317 0.191277 117.186 0.226311 117.071 0.1872C116.816 0.150432 116.569 0.146359 116.323 0.142282C116.109 0.129446 115.872 0.158059 115.667 0.177918C115.397 0.215291 115.159 0.243905 114.93 0.305209C114.702 0.366514 114.514 0.451753 114.294 0.545748C114.074 0.639743 113.854 0.733739 113.643 0.860424C113.464 0.978351 113.253 1.10504 113.083 1.25566C112.97 1.35607 112.872 1.38234 112.759 1.48275C112.678 1.57441 112.598 1.66607 112.517 1.75772C112.436 1.84938 112.347 1.90834 112.267 2L1.69677 135.444C0.643404 136.742 0.229219 138.465 0.667191 140.1L37.5732 283.326C37.582 283.359 37.582 283.359 37.5907 283.391C37.5995 283.424 37.5995 283.424 37.6082 283.457C37.7221 283.882 37.9014 284.289 38.1045 284.655C38.1547 284.712 38.2137 284.801 38.2639 284.858C38.4495 285.158 38.6679 285.45 38.9516 285.724C39.052 285.838 39.1763 285.91 39.3094 286.014C39.5342 286.199 39.7589 286.384 40.0076 286.528C40.1733 286.623 40.3304 286.686 40.4874 286.749C40.6444 286.813 40.7775 286.917 40.9672 286.971L208.658 344.349C209.665 344.71 210.716 344.709 211.697 344.446C212.71 344.174 213.668 343.567 214.384 342.71L325.002 209.183C325.082 209.091 325.145 208.934 325.217 208.81C325.313 208.644 325.417 208.511 325.513 208.345C325.624 208.105 325.735 207.865 325.846 207.625C325.909 207.468 325.963 207.278 326.026 207.121C326.095 206.857 326.123 206.57 326.16 206.315C326.182 206.134 326.212 205.985 326.201 205.813C326.187 205.501 326.133 205.166 326.078 204.83C326.051 204.732 326.058 204.625 326.032 204.527L288.651 61.8835C288.204 60.2163 286.925 58.8421 285.266 58.2707ZM217.716 243.886L180.608 288.692L124.805 269.482L102.153 296.855L51.5448 279.512L155.204 154.402L312.101 208.365L278.797 248.542L172.485 211.963L161.946 224.668L217.716 243.886ZM96.3202 114.54L81.1334 56.0314L113.85 16.5369L147.749 146.974L105.661 197.774L62.6964 172.742L77.9159 231.242L45.1757 270.777L11.485 140.074L53.3642 89.5402L96.3202 114.54ZM290.1 108.866L240.118 91.636L263.187 180.477L207.393 161.3L184.315 72.4265L134.721 55.3375L123.853 13.4712L279.204 67.2878L290.1 108.866Z" fill="#F7A600" fill-opacity="0.05"/>
</svg>
